# File created by Blade
# Date/Time:  Tue Apr 07 20:22:14 2015
# Frame Rate: 120.000 fps
#------------------------------------------------------
:FULLY-SPECIFIED
:DEGREES
776
root 6.011516 32.343092 -10.620211 8.283948 -46.830091 -31.047793
Spine 17.541551 22.433249 15.607224
Head 2.310138 7.157013 4.388886
LeftShoulder -23.227383 42.158251 17.217734
LeftArm 55.753040 -54.448983 -75.444638
LeftForeArm 0.975779 -0.000000 2.512179
LeftHand 11.891070 0.000000 6.268773
LeftHandThumb1 -26.253704 0.000000 33.147579
RightShoulder 10.792709 15.394991 -20.799387
RightArm 25.140014 9.578260 56.888002
RightForeArm -1.994083 -0.000000 3.551656
RightHand 1.916198 0.000000 9.593805
RightHandThumb1 -24.326973 -0.000000 -32.862282
LeftUpLeg -0.243143 3.451311 15.381487
LeftLeg 31.568195 -0.000000 -0.000000
LeftFoot -23.607221 22.859715 -13.596410
LeftToeBase -9.527890 -0.000000 0.000000
RightUpLeg -113.713969 -33.453128 18.611053
RightLeg 37.261263 -0.000000 -0.000000
RightFoot 41.240969 -21.966875 3.577143
RightToeBase 33.128909 -0.000000 -0.000000
777
root 6.007949 32.358160 -10.616162 8.555729 -46.863800 -31.250232
Spine 17.430637 22.470350 15.747984
Head 2.350273 7.259559 4.459540
LeftShoulder -23.221870 42.166220 17.243975
LeftArm 55.718193 -54.378474 -75.416543
LeftForeArm 1.049606 -0.000000 2.532682
LeftHand 11.912519 -0.000000 6.284945
LeftHandThumb1 -26.253704 0.000000 33.147579
RightShoulder 10.817278 15.486769 -20.734912
RightArm 25.477744 9.403078 57.157573
RightForeArm -2.070304 -0.000000 3.563827
RightHand 1.711591 -0.000000 9.529466
RightHandThumb1 -24.326973 -0.000000 -32.862282
LeftUpLeg -0.260235 3.240590 15.389234
LeftLeg 31.370500 -0.000000 -0.000000
LeftFoot -23.416664 23.499997 -13.150309
LeftToeBase -9.560027 -0.000000 0.000000
RightUpLeg -113.631426 -33.341396 18.541892
RightLeg 37.269108 -0.000000 -0.000000
RightFoot 41.087031 -22.044930 3.652455
RightToeBase 32.915459 -0.000000 -0.000000
778
root 6.003361 32.375268 -10.606851 8.795335 -46.893246 -31.463162
Spine 17.357406 22.481202 15.920009
Head 2.385914 7.338940 4.514306
LeftShoulder -23.207838 42.170942 17.264644
LeftArm 55.638289 -54.350635 -75.390131
LeftForeArm 1.161631 -0.000000 2.561694
LeftHand 11.868132 -0.000000 6.268992
LeftHandThumb1 -26.253704 0.000000 33.147579
RightShoulder 10.869458 15.546769 -20.697014
RightArm 25.734776 9.287497 57.421432
RightForeArm -2.047602 -0.000000 3.694346
RightHand 1.864463 -0.000000 9.354711
RightHandThumb1 -24.326973 -0.000000 -32.862282
LeftUpLeg -0.241178 3.041090 15.429380
LeftLeg 31.205626 -0.000000 -0.000000
LeftFoot -23.365412 23.883832 -13.036313
LeftToeBase -9.547049 -0.000000 0.000000
RightUpLeg -113.428484 -33.296064 18.330949
RightLeg 37.312570 -0.000000 -0.000000
RightFoot 41.003689 -21.988812 3.646151
RightToeBase 32.800897 -0.000000 -0.000000
779
root 5.996275 32.392990 -10.602235 9.130285 -46.937263 -31.763254
Spine 17.254644 22.533694 16.116784
Head 2.396758 7.425075 4.640851
LeftShoulder -23.246770 42.208710 17.273868
LeftArm 55.623644 -54.313895 -75.416145
LeftForeArm 1.280868 0.000000 2.548695
LeftHand 11.915143 -0.000000 6.311581
LeftHandThumb1 -26.253704 0.000000 33.147579
RightShoulder 10.890416 15.552908 -20.676992
RightArm 26.012427 9.159871 57.713904
RightForeArm -1.937552 -0.000000 3.881177
RightHand 1.868635 0.000000 9.481214
RightHandThumb1 -24.326973 -0.000000 -32.862282
LeftUpLeg -0.224657 2.937930 15.570584
LeftLeg 31.022961 -0.000000 -0.000000
LeftFoot -23.298211 24.176722 -12.807960
LeftToeBase -9.458636 -0.000000 0.000000
RightUpLeg -113.193041 -33.220071 18.095553
RightLeg 37.400789 -0.000000 -0.000000
RightFoot 40.934048 -22.025304 3.620200
RightToeBase 32.745578 -0.000000 -0.000000
780
root 5.987082 32.411775 -10.595059 9.494714 -46.932758 -32.122257
Spine 17.137421 22.538538 16.362877
Head 2.432682 7.480242 4.773230
LeftShoulder -23.330831 42.325059 17.239236
LeftArm 55.686219 -54.283521 -75.492024
LeftForeArm 1.361224 -0.000000 2.527340
LeftHand 11.888428 -0.000000 6.327746
LeftHandThumb1 -26.253704 0.000000 33.147579
RightShoulder 10.915622 15.540749 -20.667200
RightArm 26.282719 9.098042 58.027254
RightForeArm -1.857869 0.000000 4.081032
RightHand 1.907259 -0.000000 9.613872
RightHandThumb1 -24.326973 -0.000000 -32.862282
LeftUpLeg -0.238327 2.675499 15.722629
LeftLeg 30.920257 -0.000000 -0.000000
LeftFoot -23.239446 24.606499 -12.636006
LeftToeBase -9.674265 -0.000000 0.000000
RightUpLeg -112.912246 -33.237930 17.838278
RightLeg 37.489231 -0.000000 -0.000000
RightFoot 40.946065 -21.874889 3.656640
RightToeBase 32.747845 -0.000000 -0.000000
